<?xml version="1.0" encoding="utf-8" standalone="yes" ?><svg xmlns="http://www.w3.org/2000/svg" version="1.1" width="840" height="985">
<rect x="20.0" y="164.9546" width="800.0" height="800.0" fill="none" stroke="black" stroke-width="1px" />
<path d="M 52.723400000000005 -2.0844000000000165 l 383.52660000000003 383.52660000000003 l -383.52660000000003 383.52660000000003 l -383.52660000000003 -383.52660000000003 z" fill="#800000" stroke="none" opacity="0.1" />
<path d="M 609.851 757.752 l 129.5876 129.5876 l -129.5876 129.5876 l -129.5876 -129.5876 z" fill="#E00038" stroke="none" opacity="0.1" />
<path d="M 693.7162000000001 147.13280000000003 l 306.563 306.563 l -306.563 306.563 l -306.563 -306.563 z" fill="#800040" stroke="none" opacity="0.1" />
<path d="M 140.0338 452.2508000000001 l 338.9318 338.9318 l -338.9318 338.9318 l -338.9318 -338.9318 z" fill="#E000A8" stroke="none" opacity="0.1" />
<path d="M 713.6754000000001 755.9856 l 141.18460000000002 141.18460000000002 l -141.18460000000002 141.18460000000002 l -141.18460000000002 -141.18460000000002 z" fill="#800080" stroke="none" opacity="0.1" />
<path d="M 485.4288 784.7814 l 48.696400000000004 48.696400000000004 l -48.696400000000004 48.696400000000004 l -48.696400000000004 -48.696400000000004 z" fill="#A800E0" stroke="none" opacity="0.1" />
<path d="M 257.5362 560.1560000000001 l 25.848000000000003 25.848000000000003 l -25.848000000000003 25.848000000000003 l -25.848000000000003 -25.848000000000003 z" fill="#400080" stroke="none" opacity="0.1" />
<path d="M 818.9984000000001 634.9766 l 74.0356 74.0356 l -74.0356 74.0356 l -74.0356 -74.0356 z" fill="#3800E0" stroke="none" opacity="0.1" />
<path d="M 528.3812 641.2206 l 116.88000000000001 116.88000000000001 l -116.88000000000001 116.88000000000001 l -116.88000000000001 -116.88000000000001 z" fill="#000080" stroke="none" opacity="0.1" />
<path d="M 452.2726 307.884 l 228.30280000000002 228.30280000000002 l -228.30280000000002 228.30280000000002 l -228.30280000000002 -228.30280000000002 z" fill="#0038E0" stroke="none" opacity="0.1" />
<path d="M 787.1310000000001 907.5360000000001 l 57.3676 57.3676 l -57.3676 57.3676 l -57.3676 -57.3676 z" fill="#004080" stroke="none" opacity="0.1" />
<path d="M 805.2904000000001 500.7626 l 110.4012 110.4012 l -110.4012 110.4012 l -110.4012 -110.4012 z" fill="#00A8E0" stroke="none" opacity="0.1" />
<path d="M 245.83620000000002 -23.7012 l 237.0128 237.0128 l -237.0128 237.0128 l -237.0128 -237.0128 z" fill="#008080" stroke="none" opacity="0.1" />
<path d="M 549.1964 818.4066 l 144.9456 144.9456 l -144.9456 144.9456 l -144.9456 -144.9456 z" fill="#00E0A8" stroke="none" opacity="0.1" />
<path d="M 572.3778 609.4104000000001 l 46.2686 46.2686 l -46.2686 46.2686 l -46.2686 -46.2686 z" fill="#008040" stroke="none" opacity="0.1" />
<path d="M 765.6736000000001 19.142799999999994 l 173.83280000000002 173.83280000000002 l -173.83280000000002 173.83280000000002 l -173.83280000000002 -173.83280000000002 z" fill="#00E038" stroke="none" opacity="0.1" />
<path d="M 818.8306 756.4516 l 91.39200000000001 91.39200000000001 l -91.39200000000001 91.39200000000001 l -91.39200000000001 -91.39200000000001 z" fill="#008000" stroke="none" opacity="0.1" />
<path d="M 630.5264000000001 643.7990000000001 l 97.66760000000001 97.66760000000001 l -97.66760000000001 97.66760000000001 l -97.66760000000001 -97.66760000000001 z" fill="#38E000" stroke="none" opacity="0.1" />
<path d="M 574.8748 -14.960200000000043 l 290.12280000000004 290.12280000000004 l -290.12280000000004 290.12280000000004 l -290.12280000000004 -290.12280000000004 z" fill="#408000" stroke="none" opacity="0.1" />
<path d="M 781.0814 672.8936000000001 l 111.988 111.988 l -111.988 111.988 l -111.988 -111.988 z" fill="#A8E000" stroke="none" opacity="0.1" />
<path d="M 381.42040000000003 730.8058 l 200.1484 200.1484 l -200.1484 200.1484 l -200.1484 -200.1484 z" fill="#808000" stroke="none" opacity="0.1" />
<path d="M 420.9176 507.4406 l 172.9836 172.9836 l -172.9836 172.9836 l -172.9836 -172.9836 z" fill="#E0A800" stroke="none" opacity="0.1" />
<path d="M 817.7386 934.2916 l 27.8868 27.8868 l -27.8868 27.8868 l -27.8868 -27.8868 z" fill="#804000" stroke="none" opacity="0.1" />
<path d="M 708.956 625.2306000000001 l 115.813 115.813 l -115.813 115.813 l -115.813 -115.813 z" fill="#E03800" stroke="none" opacity="0.1" />
<path d="M 52.723400000000005 -2.0844000000000165 l 383.52660000000003 383.52660000000003 l -383.52660000000003 383.52660000000003 l -383.52660000000003 -383.52660000000003 z" fill="none" stroke="#800000" stroke-width="1" />
<ellipse cx="52.723400000000005" cy="381.4422" rx="4" ry="4" fill="#800000" stroke="none" />
<ellipse cx="252.73760000000001" cy="564.9546" rx="2.0" ry="2.0" fill="black" stroke="#800000" stroke-width="0.5" />
<path d="M 609.851 757.752 l 129.5876 129.5876 l -129.5876 129.5876 l -129.5876 -129.5876 z" fill="none" stroke="#E00038" stroke-width="1" />
<ellipse cx="609.851" cy="887.3396" rx="4" ry="4" fill="#E00038" stroke="none" />
<ellipse cx="609.851" cy="887.3396" rx="5.5" ry="5.5" fill="none" stroke="#E00038" stroke-width="1" />
<ellipse cx="509.10880000000003" cy="858.4942000000001" rx="2.0" ry="2.0" fill="black" stroke="#E00038" stroke-width="0.5" />
<path d="M 693.7162000000001 147.13280000000003 l 306.563 306.563 l -306.563 306.563 l -306.563 -306.563 z" fill="none" stroke="#800040" stroke-width="1" />
<ellipse cx="693.7162000000001" cy="453.6958" rx="4" ry="4" fill="#800040" stroke="none" />
<ellipse cx="768.8502000000001" cy="685.1248" rx="2.0" ry="2.0" fill="black" stroke="#800040" stroke-width="0.5" />
<path d="M 140.0338 452.2508000000001 l 338.9318 338.9318 l -338.9318 338.9318 l -338.9318 -338.9318 z" fill="none" stroke="#E000A8" stroke-width="1" />
<ellipse cx="140.0338" cy="791.1826000000001" rx="4" ry="4" fill="#E000A8" stroke="none" />
<ellipse cx="252.73760000000001" cy="564.9546" rx="2.0" ry="2.0" fill="black" stroke="#E000A8" stroke-width="0.5" />
<path d="M 713.6754000000001 755.9856 l 141.18460000000002 141.18460000000002 l -141.18460000000002 141.18460000000002 l -141.18460000000002 -141.18460000000002 z" fill="none" stroke="#800080" stroke-width="1" />
<ellipse cx="713.6754000000001" cy="897.1702" rx="4" ry="4" fill="#800080" stroke="none" />
<ellipse cx="713.6754000000001" cy="897.1702" rx="5.5" ry="5.5" fill="none" stroke="#800080" stroke-width="1" />
<ellipse cx="815.8126000000001" cy="936.2176000000001" rx="2.0" ry="2.0" fill="black" stroke="#800080" stroke-width="0.5" />
<path d="M 485.4288 784.7814 l 48.696400000000004 48.696400000000004 l -48.696400000000004 48.696400000000004 l -48.696400000000004 -48.696400000000004 z" fill="none" stroke="#A800E0" stroke-width="1" />
<ellipse cx="485.4288" cy="833.4778" rx="4" ry="4" fill="#A800E0" stroke="none" />
<ellipse cx="509.10880000000003" cy="858.4942000000001" rx="2.0" ry="2.0" fill="black" stroke="#A800E0" stroke-width="0.5" />
<path d="M 257.5362 560.1560000000001 l 25.848000000000003 25.848000000000003 l -25.848000000000003 25.848000000000003 l -25.848000000000003 -25.848000000000003 z" fill="none" stroke="#400080" stroke-width="1" />
<ellipse cx="257.5362" cy="586.004" rx="4" ry="4" fill="#400080" stroke="none" />
<ellipse cx="252.73760000000001" cy="564.9546" rx="2.0" ry="2.0" fill="black" stroke="#400080" stroke-width="0.5" />
<path d="M 818.9984000000001 634.9766 l 74.0356 74.0356 l -74.0356 74.0356 l -74.0356 -74.0356 z" fill="none" stroke="#3800E0" stroke-width="1" />
<ellipse cx="818.9984000000001" cy="709.0122" rx="4" ry="4" fill="#3800E0" stroke="none" />
<ellipse cx="768.8502000000001" cy="685.1248" rx="2.0" ry="2.0" fill="black" stroke="#3800E0" stroke-width="0.5" />
<path d="M 528.3812 641.2206 l 116.88000000000001 116.88000000000001 l -116.88000000000001 116.88000000000001 l -116.88000000000001 -116.88000000000001 z" fill="none" stroke="#000080" stroke-width="1" />
<ellipse cx="528.3812" cy="758.1006" rx="4" ry="4" fill="#000080" stroke="none" />
<ellipse cx="580.743" cy="693.5824" rx="2.0" ry="2.0" fill="black" stroke="#000080" stroke-width="0.5" />
<path d="M 452.2726 307.884 l 228.30280000000002 228.30280000000002 l -228.30280000000002 228.30280000000002 l -228.30280000000002 -228.30280000000002 z" fill="none" stroke="#0038E0" stroke-width="1" />
<ellipse cx="452.2726" cy="536.1868000000001" rx="4" ry="4" fill="#0038E0" stroke="none" />
<ellipse cx="252.73760000000001" cy="564.9546" rx="2.0" ry="2.0" fill="black" stroke="#0038E0" stroke-width="0.5" />
<path d="M 787.1310000000001 907.5360000000001 l 57.3676 57.3676 l -57.3676 57.3676 l -57.3676 -57.3676 z" fill="none" stroke="#004080" stroke-width="1" />
<ellipse cx="787.1310000000001" cy="964.9036000000001" rx="4" ry="4" fill="#004080" stroke="none" />
<ellipse cx="815.8126000000001" cy="936.2176000000001" rx="2.0" ry="2.0" fill="black" stroke="#004080" stroke-width="0.5" />
<path d="M 805.2904000000001 500.7626 l 110.4012 110.4012 l -110.4012 110.4012 l -110.4012 -110.4012 z" fill="none" stroke="#00A8E0" stroke-width="1" />
<ellipse cx="805.2904000000001" cy="611.1638" rx="4" ry="4" fill="#00A8E0" stroke="none" />
<ellipse cx="768.8502000000001" cy="685.1248" rx="2.0" ry="2.0" fill="black" stroke="#00A8E0" stroke-width="0.5" />
<path d="M 245.83620000000002 -23.7012 l 237.0128 237.0128 l -237.0128 237.0128 l -237.0128 -237.0128 z" fill="none" stroke="#008080" stroke-width="1" />
<ellipse cx="245.83620000000002" cy="213.3116" rx="4" ry="4" fill="#008080" stroke="none" />
<ellipse cx="414.726" cy="145.1886" rx="2.0" ry="2.0" fill="black" stroke="#008080" stroke-width="0.5" />
<path d="M 549.1964 818.4066 l 144.9456 144.9456 l -144.9456 144.9456 l -144.9456 -144.9456 z" fill="none" stroke="#00E0A8" stroke-width="1" />
<ellipse cx="549.1964" cy="963.3522" rx="4" ry="4" fill="#00E0A8" stroke="none" />
<ellipse cx="509.10880000000003" cy="858.4942000000001" rx="2.0" ry="2.0" fill="black" stroke="#00E0A8" stroke-width="0.5" />
<path d="M 572.3778 609.4104000000001 l 46.2686 46.2686 l -46.2686 46.2686 l -46.2686 -46.2686 z" fill="none" stroke="#008040" stroke-width="1" />
<ellipse cx="572.3778" cy="655.6790000000001" rx="4" ry="4" fill="#008040" stroke="none" />
<ellipse cx="580.743" cy="693.5824" rx="2.0" ry="2.0" fill="black" stroke="#008040" stroke-width="0.5" />
<path d="M 765.6736000000001 19.142799999999994 l 173.83280000000002 173.83280000000002 l -173.83280000000002 173.83280000000002 l -173.83280000000002 -173.83280000000002 z" fill="none" stroke="#00E038" stroke-width="1" />
<ellipse cx="765.6736000000001" cy="192.97560000000001" rx="4" ry="4" fill="#00E038" stroke="none" />
<ellipse cx="766.5308" cy="20.0" rx="2.0" ry="2.0" fill="black" stroke="#00E038" stroke-width="0.5" />
<path d="M 818.8306 756.4516 l 91.39200000000001 91.39200000000001 l -91.39200000000001 91.39200000000001 l -91.39200000000001 -91.39200000000001 z" fill="none" stroke="#008000" stroke-width="1" />
<ellipse cx="818.8306" cy="847.8436" rx="4" ry="4" fill="#008000" stroke="none" />
<ellipse cx="815.8126000000001" cy="936.2176000000001" rx="2.0" ry="2.0" fill="black" stroke="#008000" stroke-width="0.5" />
<path d="M 630.5264000000001 643.7990000000001 l 97.66760000000001 97.66760000000001 l -97.66760000000001 97.66760000000001 l -97.66760000000001 -97.66760000000001 z" fill="none" stroke="#38E000" stroke-width="1" />
<ellipse cx="630.5264000000001" cy="741.4666000000001" rx="4" ry="4" fill="#38E000" stroke="none" />
<ellipse cx="630.5264000000001" cy="741.4666000000001" rx="5.5" ry="5.5" fill="none" stroke="#38E000" stroke-width="1" />
<ellipse cx="580.743" cy="693.5824" rx="2.0" ry="2.0" fill="black" stroke="#38E000" stroke-width="0.5" />
<path d="M 574.8748 -14.960200000000043 l 290.12280000000004 290.12280000000004 l -290.12280000000004 290.12280000000004 l -290.12280000000004 -290.12280000000004 z" fill="none" stroke="#408000" stroke-width="1" />
<ellipse cx="574.8748" cy="275.1626" rx="4" ry="4" fill="#408000" stroke="none" />
<ellipse cx="414.726" cy="145.1886" rx="2.0" ry="2.0" fill="black" stroke="#408000" stroke-width="0.5" />
<path d="M 781.0814 672.8936000000001 l 111.988 111.988 l -111.988 111.988 l -111.988 -111.988 z" fill="none" stroke="#A8E000" stroke-width="1" />
<ellipse cx="781.0814" cy="784.8816" rx="4" ry="4" fill="#A8E000" stroke="none" />
<ellipse cx="768.8502000000001" cy="685.1248" rx="2.0" ry="2.0" fill="black" stroke="#A8E000" stroke-width="0.5" />
<path d="M 381.42040000000003 730.8058 l 200.1484 200.1484 l -200.1484 200.1484 l -200.1484 -200.1484 z" fill="none" stroke="#808000" stroke-width="1" />
<ellipse cx="381.42040000000003" cy="930.9542" rx="4" ry="4" fill="#808000" stroke="none" />
<ellipse cx="509.10880000000003" cy="858.4942000000001" rx="2.0" ry="2.0" fill="black" stroke="#808000" stroke-width="0.5" />
<path d="M 420.9176 507.4406 l 172.9836 172.9836 l -172.9836 172.9836 l -172.9836 -172.9836 z" fill="none" stroke="#E0A800" stroke-width="1" />
<ellipse cx="420.9176" cy="680.4242" rx="4" ry="4" fill="#E0A800" stroke="none" />
<ellipse cx="580.743" cy="693.5824" rx="2.0" ry="2.0" fill="black" stroke="#E0A800" stroke-width="0.5" />
<path d="M 817.7386 934.2916 l 27.8868 27.8868 l -27.8868 27.8868 l -27.8868 -27.8868 z" fill="none" stroke="#804000" stroke-width="1" />
<ellipse cx="817.7386" cy="962.1784" rx="4" ry="4" fill="#804000" stroke="none" />
<ellipse cx="815.8126000000001" cy="936.2176000000001" rx="2.0" ry="2.0" fill="black" stroke="#804000" stroke-width="0.5" />
<path d="M 708.956 625.2306000000001 l 115.813 115.813 l -115.813 115.813 l -115.813 -115.813 z" fill="none" stroke="#E03800" stroke-width="1" />
<ellipse cx="708.956" cy="741.0436000000001" rx="4" ry="4" fill="#E03800" stroke="none" />
<ellipse cx="708.956" cy="741.0436000000001" rx="5.5" ry="5.5" fill="none" stroke="#E03800" stroke-width="1" />
<ellipse cx="768.8502000000001" cy="685.1248" rx="2.0" ry="2.0" fill="black" stroke="#E03800" stroke-width="0.5" />
<ellipse cx="660.88" cy="808.7808" rx="6.0" ry="6.0" fill="red" stroke="none" />
<ellipse cx="660.88" cy="808.7808" rx="8.25" ry="8.25" fill="none" stroke="red" stroke-width="1.5" />
</svg>
