<?xml version="1.0" encoding="UTF-8" standalone="no"?>
<!DOCTYPE svg PUBLIC "-//W3C//DTD SVG 1.1//EN"
 "http://www.w3.org/Graphics/SVG/1.1/DTD/svg11.dtd">
<!-- Generated by graphviz version 2.43.0 (0)
 -->
<!-- Title: aoc2023_23 Pages: 1 -->
<svg width="591pt" height="561pt"
 viewBox="0.00 0.00 590.92 560.98" xmlns="http://www.w3.org/2000/svg" xmlns:xlink="http://www.w3.org/1999/xlink">
<g id="graph0" class="graph" transform="scale(1 1) rotate(0) translate(4 556.98)">
<title>aoc2023_23</title>
<polygon fill="white" stroke="transparent" points="-4,4 -4,-556.98 586.92,-556.98 586.92,4 -4,4"/>
<!-- y000x001 -->
<g id="node1" class="node">
<title>y000x001</title>
<polygon fill="lightgray" stroke="black" points="35,-552.98 0,-552.98 0,-529.98 35,-529.98 35,-552.98"/>
<text text-anchor="middle" x="17.5" y="-537.78" font-family="Segoe UI,FreeSans,Helvetica,Arial,sans-serif" font-size="14.00">1:2</text>
</g>
<!-- y005x005 -->
<g id="node2" class="node">
<title>y005x005</title>
<polygon fill="lightgray" stroke="black" points="89.45,-496.55 54.45,-496.55 54.45,-473.55 89.45,-473.55 89.45,-496.55"/>
<text text-anchor="middle" x="71.95" y="-481.35" font-family="Segoe UI,FreeSans,Helvetica,Arial,sans-serif" font-size="14.00">6:6</text>
</g>
<!-- y000x001&#45;&#45;y005x005 -->
<g id="edge1" class="edge">
<title>y000x001&#45;&#45;y005x005</title>
<path fill="none" stroke="red" stroke-width="5" d="M28.78,-529.79C38.13,-520.1 51.34,-506.41 60.68,-496.73"/>
<text text-anchor="middle" x="36.73" y="-517.06" font-family="Segoe UI,FreeSans,Helvetica,Arial,sans-serif" font-size="14.00">41</text>
</g>
<!-- y007x031 -->
<g id="node4" class="node">
<title>y007x031</title>
<polygon fill="lightgray" stroke="black" points="177.7,-499.49 135.7,-499.49 135.7,-476.49 177.7,-476.49 177.7,-499.49"/>
<text text-anchor="middle" x="156.7" y="-484.29" font-family="Segoe UI,FreeSans,Helvetica,Arial,sans-serif" font-size="14.00">8:32</text>
</g>
<!-- y005x005&#45;&#45;y007x031 -->
<g id="edge54" class="edge">
<title>y005x005&#45;&#45;y007x031</title>
<path fill="none" stroke="darkgray" d="M89.51,-485.66C102.89,-486.13 121.37,-486.77 135.56,-487.26"/>
<text text-anchor="middle" x="101.03" y="-490.26" font-family="Segoe UI,FreeSans,Helvetica,Arial,sans-serif" font-size="14.00">160</text>
</g>
<!-- y005x081 -->
<g id="node3" class="node">
<title>y005x081</title>
<polygon fill="lightgray" stroke="black" points="352.8,-494.87 310.8,-494.87 310.8,-471.87 352.8,-471.87 352.8,-494.87"/>
<text text-anchor="middle" x="331.8" y="-479.67" font-family="Segoe UI,FreeSans,Helvetica,Arial,sans-serif" font-size="14.00">6:82</text>
</g>
<!-- y007x107 -->
<g id="node5" class="node">
<title>y007x107</title>
<polygon fill="lightgray" stroke="black" points="444.98,-481.89 394.98,-481.89 394.98,-458.89 444.98,-458.89 444.98,-481.89"/>
<text text-anchor="middle" x="419.98" y="-466.69" font-family="Segoe UI,FreeSans,Helvetica,Arial,sans-serif" font-size="14.00">8:108</text>
</g>
<!-- y005x081&#45;&#45;y007x107 -->
<g id="edge13" class="edge">
<title>y005x081&#45;&#45;y007x107</title>
<path fill="none" stroke="darkgray" d="M353.14,-480.23C365.68,-478.38 381.6,-476.04 394.76,-474.1"/>
<text text-anchor="middle" x="379.7" y="-465.97" font-family="Segoe UI,FreeSans,Helvetica,Arial,sans-serif" font-size="14.00">188</text>
</g>
<!-- y013x063 -->
<g id="node6" class="node">
<title>y013x063</title>
<polygon fill="lightgray" stroke="black" points="268.63,-499.17 218.63,-499.17 218.63,-476.17 268.63,-476.17 268.63,-499.17"/>
<text text-anchor="middle" x="243.63" y="-483.97" font-family="Segoe UI,FreeSans,Helvetica,Arial,sans-serif" font-size="14.00">14:64</text>
</g>
<!-- y005x081&#45;&#45;y013x063 -->
<g id="edge14" class="edge">
<title>y005x081&#45;&#45;y013x063</title>
<path fill="none" stroke="red" stroke-width="5" d="M310.46,-484.41C297.92,-485.02 282,-485.8 268.85,-486.44"/>
<text text-anchor="middle" x="295.4" y="-474.23" font-family="Segoe UI,FreeSans,Helvetica,Arial,sans-serif" font-size="14.00">162</text>
</g>
<!-- y013x063&#45;&#45;y007x031 -->
<g id="edge24" class="edge">
<title>y013x063&#45;&#45;y007x031</title>
<path fill="none" stroke="red" stroke-width="5" d="M218.49,-487.76C205.65,-487.81 190.2,-487.87 177.96,-487.91"/>
<text text-anchor="middle" x="203.98" y="-476.64" font-family="Segoe UI,FreeSans,Helvetica,Arial,sans-serif" font-size="14.00">266</text>
</g>
<!-- y033x061 -->
<g id="node10" class="node">
<title>y033x061</title>
<polygon fill="lightgray" stroke="black" points="263.01,-416.19 213.01,-416.19 213.01,-393.19 263.01,-393.19 263.01,-416.19"/>
<text text-anchor="middle" x="238.01" y="-400.99" font-family="Segoe UI,FreeSans,Helvetica,Arial,sans-serif" font-size="14.00">34:62</text>
</g>
<!-- y013x063&#45;&#45;y033x061 -->
<g id="edge25" class="edge">
<title>y013x063&#45;&#45;y033x061</title>
<path fill="none" stroke="darkgray" d="M242.85,-476.13C241.78,-460.36 239.87,-432.25 238.8,-416.39"/>
<text text-anchor="middle" x="232.82" y="-450.06" font-family="Segoe UI,FreeSans,Helvetica,Arial,sans-serif" font-size="14.00">90</text>
</g>
<!-- y029x009 -->
<g id="node7" class="node">
<title>y029x009</title>
<polygon fill="lightgray" stroke="black" points="93.48,-411.71 43.48,-411.71 43.48,-388.71 93.48,-388.71 93.48,-411.71"/>
<text text-anchor="middle" x="68.48" y="-396.51" font-family="Segoe UI,FreeSans,Helvetica,Arial,sans-serif" font-size="14.00">30:10</text>
</g>
<!-- y029x009&#45;&#45;y005x005 -->
<g id="edge15" class="edge">
<title>y029x009&#45;&#45;y005x005</title>
<path fill="none" stroke="red" stroke-width="5" d="M68.96,-412.01C69.62,-428.22 70.81,-457.2 71.47,-473.36"/>
<text text-anchor="middle" x="58.71" y="-446.48" font-family="Segoe UI,FreeSans,Helvetica,Arial,sans-serif" font-size="14.00">176</text>
</g>
<!-- y033x033 -->
<g id="node9" class="node">
<title>y033x033</title>
<polygon fill="lightgray" stroke="black" points="177.33,-415.54 127.33,-415.54 127.33,-392.54 177.33,-392.54 177.33,-415.54"/>
<text text-anchor="middle" x="152.33" y="-400.34" font-family="Segoe UI,FreeSans,Helvetica,Arial,sans-serif" font-size="14.00">34:34</text>
</g>
<!-- y029x009&#45;&#45;y033x033 -->
<g id="edge17" class="edge">
<title>y029x009&#45;&#45;y033x033</title>
<path fill="none" stroke="darkgray" d="M93.64,-401.36C104.25,-401.85 116.58,-402.41 127.19,-402.9"/>
<text text-anchor="middle" x="116.16" y="-390.93" font-family="Segoe UI,FreeSans,Helvetica,Arial,sans-serif" font-size="14.00">116</text>
</g>
<!-- y057x011 -->
<g id="node14" class="node">
<title>y057x011</title>
<polygon fill="lightgray" stroke="black" points="93.57,-324.55 43.57,-324.55 43.57,-301.55 93.57,-301.55 93.57,-324.55"/>
<text text-anchor="middle" x="68.57" y="-309.35" font-family="Segoe UI,FreeSans,Helvetica,Arial,sans-serif" font-size="14.00">58:12</text>
</g>
<!-- y029x009&#45;&#45;y057x011 -->
<g id="edge16" class="edge">
<title>y029x009&#45;&#45;y057x011</title>
<path fill="none" stroke="red" stroke-width="5" d="M68.49,-388.46C68.51,-371.73 68.54,-341.25 68.56,-324.62"/>
<text text-anchor="middle" x="57.02" y="-360.34" font-family="Segoe UI,FreeSans,Helvetica,Arial,sans-serif" font-size="14.00">166</text>
</g>
<!-- y031x133 -->
<g id="node8" class="node">
<title>y031x133</title>
<polygon fill="lightgray" stroke="black" points="506.2,-424.6 449.2,-424.6 449.2,-401.6 506.2,-401.6 506.2,-424.6"/>
<text text-anchor="middle" x="477.7" y="-409.4" font-family="Segoe UI,FreeSans,Helvetica,Arial,sans-serif" font-size="14.00">32:134</text>
</g>
<!-- y031x133&#45;&#45;y007x107 -->
<g id="edge18" class="edge">
<title>y031x133&#45;&#45;y007x107</title>
<path fill="none" stroke="red" stroke-width="5" d="M466.02,-424.69C456.01,-434.63 441.65,-448.88 431.64,-458.81"/>
<text text-anchor="middle" x="437.33" y="-445.55" font-family="Segoe UI,FreeSans,Helvetica,Arial,sans-serif" font-size="14.00">370</text>
</g>
<!-- y043x109 -->
<g id="node12" class="node">
<title>y043x109</title>
<polygon fill="lightgray" stroke="black" points="435.6,-411.06 378.6,-411.06 378.6,-388.06 435.6,-388.06 435.6,-411.06"/>
<text text-anchor="middle" x="407.1" y="-395.86" font-family="Segoe UI,FreeSans,Helvetica,Arial,sans-serif" font-size="14.00">44:110</text>
</g>
<!-- y031x133&#45;&#45;y043x109 -->
<g id="edge20" class="edge">
<title>y031x133&#45;&#45;y043x109</title>
<path fill="none" stroke="darkgray" d="M448.99,-407.59C444.71,-406.77 440.3,-405.92 436.02,-405.1"/>
<text text-anchor="middle" x="448.26" y="-395.15" font-family="Segoe UI,FreeSans,Helvetica,Arial,sans-serif" font-size="14.00">120</text>
</g>
<!-- y055x129 -->
<g id="node13" class="node">
<title>y055x129</title>
<polygon fill="lightgray" stroke="black" points="519.14,-336.33 462.14,-336.33 462.14,-313.33 519.14,-313.33 519.14,-336.33"/>
<text text-anchor="middle" x="490.64" y="-321.13" font-family="Segoe UI,FreeSans,Helvetica,Arial,sans-serif" font-size="14.00">56:130</text>
</g>
<!-- y031x133&#45;&#45;y055x129 -->
<g id="edge19" class="edge">
<title>y031x133&#45;&#45;y055x129</title>
<path fill="none" stroke="red" stroke-width="5" d="M479.4,-401.56C481.87,-384.64 486.47,-353.29 488.95,-336.37"/>
<text text-anchor="middle" x="472.67" y="-372.77" font-family="Segoe UI,FreeSans,Helvetica,Arial,sans-serif" font-size="14.00">172</text>
</g>
<!-- y033x033&#45;&#45;y007x031 -->
<g id="edge47" class="edge">
<title>y033x033&#45;&#45;y007x031</title>
<path fill="none" stroke="red" stroke-width="5" d="M152.94,-415.72C153.77,-431.75 155.26,-460.43 156.1,-476.42"/>
<text text-anchor="middle" x="143.02" y="-449.87" font-family="Segoe UI,FreeSans,Helvetica,Arial,sans-serif" font-size="14.00">160</text>
</g>
<!-- y033x033&#45;&#45;y033x061 -->
<g id="edge46" class="edge">
<title>y033x033&#45;&#45;y033x061</title>
<path fill="none" stroke="red" stroke-width="5" d="M177.57,-404.23C188.73,-404.32 201.81,-404.41 212.94,-404.5"/>
<text text-anchor="middle" x="201.01" y="-393.17" font-family="Segoe UI,FreeSans,Helvetica,Arial,sans-serif" font-size="14.00">184</text>
</g>
<!-- y037x083 -->
<g id="node11" class="node">
<title>y037x083</title>
<polygon fill="lightgray" stroke="black" points="348.28,-414.78 298.28,-414.78 298.28,-391.78 348.28,-391.78 348.28,-414.78"/>
<text text-anchor="middle" x="323.28" y="-399.58" font-family="Segoe UI,FreeSans,Helvetica,Arial,sans-serif" font-size="14.00">38:84</text>
</g>
<!-- y037x083&#45;&#45;y005x081 -->
<g id="edge2" class="edge">
<title>y037x083&#45;&#45;y005x081</title>
<path fill="none" stroke="red" stroke-width="5" d="M324.54,-415.1C326.16,-430.33 328.96,-456.64 330.56,-471.77"/>
<text text-anchor="middle" x="316.05" y="-447.23" font-family="Segoe UI,FreeSans,Helvetica,Arial,sans-serif" font-size="14.00">214</text>
</g>
<!-- y037x083&#45;&#45;y033x061 -->
<g id="edge5" class="edge">
<title>y037x083&#45;&#45;y033x061</title>
<path fill="none" stroke="darkgray" d="M298.16,-403.7C287.15,-403.88 274.26,-404.09 263.24,-404.27"/>
<text text-anchor="middle" x="286.45" y="-392.78" font-family="Segoe UI,FreeSans,Helvetica,Arial,sans-serif" font-size="14.00">138</text>
</g>
<!-- y037x083&#45;&#45;y043x109 -->
<g id="edge4" class="edge">
<title>y037x083&#45;&#45;y043x109</title>
<path fill="none" stroke="darkgray" d="M348.43,-402.16C357.88,-401.74 368.69,-401.26 378.44,-400.83"/>
<text text-anchor="middle" x="363.44" y="-390.3" font-family="Segoe UI,FreeSans,Helvetica,Arial,sans-serif" font-size="14.00">152</text>
</g>
<!-- y065x079 -->
<g id="node17" class="node">
<title>y065x079</title>
<polygon fill="lightgray" stroke="black" points="349.4,-328.6 299.4,-328.6 299.4,-305.6 349.4,-305.6 349.4,-328.6"/>
<text text-anchor="middle" x="324.4" y="-313.4" font-family="Segoe UI,FreeSans,Helvetica,Arial,sans-serif" font-size="14.00">66:80</text>
</g>
<!-- y037x083&#45;&#45;y065x079 -->
<g id="edge3" class="edge">
<title>y037x083&#45;&#45;y065x079</title>
<path fill="none" stroke="red" stroke-width="5" d="M323.43,-391.66C323.64,-375.21 324.03,-345.31 324.25,-328.81"/>
<text text-anchor="middle" x="312.34" y="-364.03" font-family="Segoe UI,FreeSans,Helvetica,Arial,sans-serif" font-size="14.00">200</text>
</g>
<!-- y043x109&#45;&#45;y007x107 -->
<g id="edge32" class="edge">
<title>y043x109&#45;&#45;y007x107</title>
<path fill="none" stroke="red" stroke-width="5" d="M409.23,-411.25C411.6,-424.3 415.42,-445.29 417.81,-458.44"/>
<text text-anchor="middle" x="402.02" y="-438.65" font-family="Segoe UI,FreeSans,Helvetica,Arial,sans-serif" font-size="14.00">226</text>
</g>
<!-- y067x103 -->
<g id="node18" class="node">
<title>y067x103</title>
<polygon fill="lightgray" stroke="black" points="439.09,-327.26 382.09,-327.26 382.09,-304.26 439.09,-304.26 439.09,-327.26"/>
<text text-anchor="middle" x="410.59" y="-312.06" font-family="Segoe UI,FreeSans,Helvetica,Arial,sans-serif" font-size="14.00">68:104</text>
</g>
<!-- y043x109&#45;&#45;y067x103 -->
<g id="edge33" class="edge">
<title>y043x109&#45;&#45;y067x103</title>
<path fill="none" stroke="red" stroke-width="5" d="M407.59,-387.91C408.25,-371.9 409.44,-343.27 410.11,-327.31"/>
<text text-anchor="middle" x="397.35" y="-361.41" font-family="Segoe UI,FreeSans,Helvetica,Arial,sans-serif" font-size="14.00">134</text>
</g>
<!-- y055x129&#45;&#45;y067x103 -->
<g id="edge57" class="edge">
<title>y055x129&#45;&#45;y067x103</title>
<path fill="none" stroke="darkgray" d="M461.74,-321.56C454.39,-320.72 446.51,-319.83 439.18,-319"/>
<text text-anchor="middle" x="450.46" y="-309.08" font-family="Segoe UI,FreeSans,Helvetica,Arial,sans-serif" font-size="14.00">106</text>
</g>
<!-- y061x031 -->
<g id="node15" class="node">
<title>y061x031</title>
<polygon fill="lightgray" stroke="black" points="176.43,-329.8 126.43,-329.8 126.43,-306.8 176.43,-306.8 176.43,-329.8"/>
<text text-anchor="middle" x="151.43" y="-314.6" font-family="Segoe UI,FreeSans,Helvetica,Arial,sans-serif" font-size="14.00">62:32</text>
</g>
<!-- y061x031&#45;&#45;y033x033 -->
<g id="edge10" class="edge">
<title>y061x031&#45;&#45;y033x033</title>
<path fill="none" stroke="darkgray" d="M151.55,-329.87C151.72,-346.23 152.03,-375.98 152.21,-392.39"/>
<text text-anchor="middle" x="140.38" y="-364.93" font-family="Segoe UI,FreeSans,Helvetica,Arial,sans-serif" font-size="14.00">166</text>
</g>
<!-- y061x031&#45;&#45;y057x011 -->
<g id="edge11" class="edge">
<title>y061x031&#45;&#45;y057x011</title>
<path fill="none" stroke="darkgray" d="M126.12,-316.7C115.84,-316.05 103.99,-315.3 93.73,-314.65"/>
<text text-anchor="middle" x="109.92" y="-304.47" font-family="Segoe UI,FreeSans,Helvetica,Arial,sans-serif" font-size="14.00">144</text>
</g>
<!-- y063x057 -->
<g id="node16" class="node">
<title>y063x057</title>
<polygon fill="lightgray" stroke="black" points="262.9,-329.7 212.9,-329.7 212.9,-306.7 262.9,-306.7 262.9,-329.7"/>
<text text-anchor="middle" x="237.9" y="-314.5" font-family="Segoe UI,FreeSans,Helvetica,Arial,sans-serif" font-size="14.00">64:58</text>
</g>
<!-- y061x031&#45;&#45;y063x057 -->
<g id="edge9" class="edge">
<title>y061x031&#45;&#45;y063x057</title>
<path fill="none" stroke="red" stroke-width="5" d="M176.44,-318.27C187.81,-318.26 201.24,-318.24 212.65,-318.23"/>
<text text-anchor="middle" x="200.29" y="-307.05" font-family="Segoe UI,FreeSans,Helvetica,Arial,sans-serif" font-size="14.00">200</text>
</g>
<!-- y089x037 -->
<g id="node24" class="node">
<title>y089x037</title>
<polygon fill="lightgray" stroke="black" points="177.99,-244.48 127.99,-244.48 127.99,-221.48 177.99,-221.48 177.99,-244.48"/>
<text text-anchor="middle" x="152.99" y="-229.28" font-family="Segoe UI,FreeSans,Helvetica,Arial,sans-serif" font-size="14.00">90:38</text>
</g>
<!-- y061x031&#45;&#45;y089x037 -->
<g id="edge12" class="edge">
<title>y061x031&#45;&#45;y089x037</title>
<path fill="none" stroke="red" stroke-width="5" d="M151.64,-306.8C151.94,-290.51 152.48,-260.91 152.78,-244.58"/>
<text text-anchor="middle" x="140.71" y="-279.49" font-family="Segoe UI,FreeSans,Helvetica,Arial,sans-serif" font-size="14.00">110</text>
</g>
<!-- y063x057&#45;&#45;y033x061 -->
<g id="edge38" class="edge">
<title>y063x057&#45;&#45;y033x061</title>
<path fill="none" stroke="red" stroke-width="5" d="M237.91,-329.86C237.93,-346.37 237.97,-376.37 237.99,-392.93"/>
<text text-anchor="middle" x="226.45" y="-365.2" font-family="Segoe UI,FreeSans,Helvetica,Arial,sans-serif" font-size="14.00">186</text>
</g>
<!-- y063x057&#45;&#45;y065x079 -->
<g id="edge39" class="edge">
<title>y063x057&#45;&#45;y065x079</title>
<path fill="none" stroke="darkgray" d="M262.92,-317.88C274.29,-317.73 287.73,-317.56 299.14,-317.42"/>
<text text-anchor="middle" x="273.03" y="-321.45" font-family="Segoe UI,FreeSans,Helvetica,Arial,sans-serif" font-size="14.00">96</text>
</g>
<!-- y083x055 -->
<g id="node22" class="node">
<title>y083x055</title>
<polygon fill="lightgray" stroke="black" points="264.17,-243.2 214.17,-243.2 214.17,-220.2 264.17,-220.2 264.17,-243.2"/>
<text text-anchor="middle" x="239.17" y="-228" font-family="Segoe UI,FreeSans,Helvetica,Arial,sans-serif" font-size="14.00">84:56</text>
</g>
<!-- y063x057&#45;&#45;y083x055 -->
<g id="edge40" class="edge">
<title>y063x057&#45;&#45;y083x055</title>
<path fill="none" stroke="darkgray" d="M238.07,-306.53C238.31,-290.02 238.75,-260.02 238.99,-243.46"/>
<text text-anchor="middle" x="230.53" y="-278.8" font-family="Segoe UI,FreeSans,Helvetica,Arial,sans-serif" font-size="14.00">74</text>
</g>
<!-- y065x079&#45;&#45;y067x103 -->
<g id="edge52" class="edge">
<title>y065x079&#45;&#45;y067x103</title>
<path fill="none" stroke="red" stroke-width="5" d="M349.79,-316.7C359.92,-316.54 371.63,-316.36 382.05,-316.2"/>
<text text-anchor="middle" x="365.92" y="-305.25" font-family="Segoe UI,FreeSans,Helvetica,Arial,sans-serif" font-size="14.00">142</text>
</g>
<!-- y075x079 -->
<g id="node19" class="node">
<title>y075x079</title>
<polygon fill="lightgray" stroke="black" points="350.67,-242.1 300.67,-242.1 300.67,-219.1 350.67,-219.1 350.67,-242.1"/>
<text text-anchor="middle" x="325.67" y="-226.9" font-family="Segoe UI,FreeSans,Helvetica,Arial,sans-serif" font-size="14.00">76:80</text>
</g>
<!-- y065x079&#45;&#45;y075x079 -->
<g id="edge53" class="edge">
<title>y065x079&#45;&#45;y075x079</title>
<path fill="none" stroke="darkgray" d="M324.57,-305.43C324.81,-288.92 325.25,-258.92 325.5,-242.36"/>
<text text-anchor="middle" x="317.03" y="-277.7" font-family="Segoe UI,FreeSans,Helvetica,Arial,sans-serif" font-size="14.00">30</text>
</g>
<!-- y075x079&#45;&#45;y083x055 -->
<g id="edge59" class="edge">
<title>y075x079&#45;&#45;y083x055</title>
<path fill="none" stroke="darkgray" d="M300.65,-230.92C289.27,-231.07 275.84,-231.24 264.43,-231.38"/>
<text text-anchor="middle" x="288.29" y="-219.95" font-family="Segoe UI,FreeSans,Helvetica,Arial,sans-serif" font-size="14.00">124</text>
</g>
<!-- y075x129 -->
<g id="node20" class="node">
<title>y075x129</title>
<polygon fill="lightgray" stroke="black" points="523.67,-248.19 466.67,-248.19 466.67,-225.19 523.67,-225.19 523.67,-248.19"/>
<text text-anchor="middle" x="495.17" y="-232.99" font-family="Segoe UI,FreeSans,Helvetica,Arial,sans-serif" font-size="14.00">76:130</text>
</g>
<!-- y075x129&#45;&#45;y055x129 -->
<g id="edge23" class="edge">
<title>y075x129&#45;&#45;y055x129</title>
<path fill="none" stroke="red" stroke-width="5" d="M494.58,-248.22C493.71,-265.11 492.1,-296.41 491.23,-313.31"/>
<text text-anchor="middle" x="481.41" y="-284.56" font-family="Segoe UI,FreeSans,Helvetica,Arial,sans-serif" font-size="14.00">160</text>
</g>
<!-- y085x105 -->
<g id="node23" class="node">
<title>y085x105</title>
<polygon fill="lightgray" stroke="black" points="440.67,-242.02 383.67,-242.02 383.67,-219.02 440.67,-219.02 440.67,-242.02"/>
<text text-anchor="middle" x="412.17" y="-226.82" font-family="Segoe UI,FreeSans,Helvetica,Arial,sans-serif" font-size="14.00">86:106</text>
</g>
<!-- y075x129&#45;&#45;y085x105 -->
<g id="edge22" class="edge">
<title>y075x129&#45;&#45;y085x105</title>
<path fill="none" stroke="red" stroke-width="5" d="M466.61,-234.57C458.26,-233.95 449.14,-233.27 440.79,-232.65"/>
<text text-anchor="middle" x="453.7" y="-222.41" font-family="Segoe UI,FreeSans,Helvetica,Arial,sans-serif" font-size="14.00">166</text>
</g>
<!-- y099x123 -->
<g id="node25" class="node">
<title>y099x123</title>
<polygon fill="lightgray" stroke="black" points="528.15,-161.29 463.15,-161.29 463.15,-138.29 528.15,-138.29 528.15,-161.29"/>
<text text-anchor="middle" x="495.65" y="-146.09" font-family="Segoe UI,FreeSans,Helvetica,Arial,sans-serif" font-size="14.00">100:124</text>
</g>
<!-- y075x129&#45;&#45;y099x123 -->
<g id="edge21" class="edge">
<title>y075x129&#45;&#45;y099x123</title>
<path fill="none" stroke="darkgray" d="M495.24,-224.97C495.33,-208.3 495.5,-177.9 495.59,-161.33"/>
<text text-anchor="middle" x="483.91" y="-196.95" font-family="Segoe UI,FreeSans,Helvetica,Arial,sans-serif" font-size="14.00">190</text>
</g>
<!-- y079x009 -->
<g id="node21" class="node">
<title>y079x009</title>
<polygon fill="lightgray" stroke="black" points="98.05,-236.14 48.05,-236.14 48.05,-213.14 98.05,-213.14 98.05,-236.14"/>
<text text-anchor="middle" x="73.05" y="-220.94" font-family="Segoe UI,FreeSans,Helvetica,Arial,sans-serif" font-size="14.00">80:10</text>
</g>
<!-- y079x009&#45;&#45;y057x011 -->
<g id="edge42" class="edge">
<title>y079x009&#45;&#45;y057x011</title>
<path fill="none" stroke="red" stroke-width="5" d="M72.46,-236.2C71.6,-253.14 70.01,-284.55 69.15,-301.49"/>
<text text-anchor="middle" x="59.31" y="-272.65" font-family="Segoe UI,FreeSans,Helvetica,Arial,sans-serif" font-size="14.00">140</text>
</g>
<!-- y079x009&#45;&#45;y089x037 -->
<g id="edge41" class="edge">
<title>y079x009&#45;&#45;y089x037</title>
<path fill="none" stroke="red" stroke-width="5" d="M98.34,-227.28C107.76,-228.26 118.45,-229.38 127.86,-230.36"/>
<text text-anchor="middle" x="113.1" y="-217.62" font-family="Segoe UI,FreeSans,Helvetica,Arial,sans-serif" font-size="14.00">266</text>
</g>
<!-- y083x055&#45;&#45;y089x037 -->
<g id="edge60" class="edge">
<title>y083x055&#45;&#45;y089x037</title>
<path fill="none" stroke="darkgray" d="M213.78,-232.08C202.56,-232.25 189.4,-232.44 178.2,-232.61"/>
<text text-anchor="middle" x="201.74" y="-221.14" font-family="Segoe UI,FreeSans,Helvetica,Arial,sans-serif" font-size="14.00">116</text>
</g>
<!-- y085x105&#45;&#45;y067x103 -->
<g id="edge28" class="edge">
<title>y085x105&#45;&#45;y067x103</title>
<path fill="none" stroke="darkgray" d="M411.95,-242.37C411.65,-258.65 411.11,-287.77 410.8,-304.01"/>
<text text-anchor="middle" x="403.38" y="-276.99" font-family="Segoe UI,FreeSans,Helvetica,Arial,sans-serif" font-size="14.00">80</text>
</g>
<!-- y085x105&#45;&#45;y075x079 -->
<g id="edge26" class="edge">
<title>y085x105&#45;&#45;y075x079</title>
<path fill="none" stroke="red" stroke-width="5" d="M383.37,-230.55C372.85,-230.56 361.04,-230.57 350.87,-230.58"/>
<text text-anchor="middle" x="367.12" y="-219.36" font-family="Segoe UI,FreeSans,Helvetica,Arial,sans-serif" font-size="14.00">152</text>
</g>
<!-- y109x103 -->
<g id="node29" class="node">
<title>y109x103</title>
<polygon fill="lightgray" stroke="black" points="444.21,-156.32 379.21,-156.32 379.21,-133.32 444.21,-133.32 444.21,-156.32"/>
<text text-anchor="middle" x="411.71" y="-141.12" font-family="Segoe UI,FreeSans,Helvetica,Arial,sans-serif" font-size="14.00">110:104</text>
</g>
<!-- y085x105&#45;&#45;y109x103 -->
<g id="edge27" class="edge">
<title>y085x105&#45;&#45;y109x103</title>
<path fill="none" stroke="darkgray" d="M412.11,-218.96C412.02,-202.6 411.86,-172.88 411.77,-156.47"/>
<text text-anchor="middle" x="400.44" y="-191.52" font-family="Segoe UI,FreeSans,Helvetica,Arial,sans-serif" font-size="14.00">118</text>
</g>
<!-- y099x123&#45;&#45;y109x103 -->
<g id="edge56" class="edge">
<title>y099x123&#45;&#45;y109x103</title>
<path fill="none" stroke="red" stroke-width="5" d="M462.96,-147.86C456.88,-147.5 450.53,-147.12 444.45,-146.76"/>
<text text-anchor="middle" x="453.7" y="-136.11" font-family="Segoe UI,FreeSans,Helvetica,Arial,sans-serif" font-size="14.00">142</text>
</g>
<!-- y101x079 -->
<g id="node26" class="node">
<title>y101x079</title>
<polygon fill="lightgray" stroke="black" points="354.53,-155.63 297.53,-155.63 297.53,-132.63 354.53,-132.63 354.53,-155.63"/>
<text text-anchor="middle" x="326.03" y="-140.43" font-family="Segoe UI,FreeSans,Helvetica,Arial,sans-serif" font-size="14.00">102:80</text>
</g>
<!-- y101x079&#45;&#45;y075x079 -->
<g id="edge43" class="edge">
<title>y101x079&#45;&#45;y075x079</title>
<path fill="none" stroke="red" stroke-width="5" d="M325.98,-155.79C325.91,-172.3 325.79,-202.3 325.72,-218.85"/>
<text text-anchor="middle" x="314.35" y="-191.12" font-family="Segoe UI,FreeSans,Helvetica,Arial,sans-serif" font-size="14.00">170</text>
</g>
<!-- y101x079&#45;&#45;y109x103 -->
<g id="edge45" class="edge">
<title>y101x079&#45;&#45;y109x103</title>
<path fill="none" stroke="darkgray" d="M354.56,-144.36C362.45,-144.42 371.06,-144.49 379.16,-144.56"/>
<text text-anchor="middle" x="366.86" y="-133.26" font-family="Segoe UI,FreeSans,Helvetica,Arial,sans-serif" font-size="14.00">156</text>
</g>
<!-- y111x057 -->
<g id="node30" class="node">
<title>y111x057</title>
<polygon fill="lightgray" stroke="black" points="269.25,-157.03 212.25,-157.03 212.25,-134.03 269.25,-134.03 269.25,-157.03"/>
<text text-anchor="middle" x="240.75" y="-141.83" font-family="Segoe UI,FreeSans,Helvetica,Arial,sans-serif" font-size="14.00">112:58</text>
</g>
<!-- y101x079&#45;&#45;y111x057 -->
<g id="edge44" class="edge">
<title>y101x079&#45;&#45;y111x057</title>
<path fill="none" stroke="red" stroke-width="5" d="M297.16,-144.6C288.17,-144.75 278.27,-144.91 269.3,-145.06"/>
<text text-anchor="middle" x="283.23" y="-133.63" font-family="Segoe UI,FreeSans,Helvetica,Arial,sans-serif" font-size="14.00">160</text>
</g>
<!-- y107x007 -->
<g id="node27" class="node">
<title>y107x007</title>
<polygon fill="lightgray" stroke="black" points="111.35,-147.72 61.35,-147.72 61.35,-124.72 111.35,-124.72 111.35,-147.72"/>
<text text-anchor="middle" x="86.35" y="-132.52" font-family="Segoe UI,FreeSans,Helvetica,Arial,sans-serif" font-size="14.00">108:8</text>
</g>
<!-- y107x007&#45;&#45;y079x009 -->
<g id="edge8" class="edge">
<title>y107x007&#45;&#45;y079x009</title>
<path fill="none" stroke="darkgray" d="M84.61,-147.78C82.06,-164.73 77.34,-196.13 74.79,-213.08"/>
<text text-anchor="middle" x="68.2" y="-184.23" font-family="Segoe UI,FreeSans,Helvetica,Arial,sans-serif" font-size="14.00">158</text>
</g>
<!-- y109x039 -->
<g id="node28" class="node">
<title>y109x039</title>
<polygon fill="lightgray" stroke="black" points="185.43,-160.65 128.43,-160.65 128.43,-137.65 185.43,-137.65 185.43,-160.65"/>
<text text-anchor="middle" x="156.93" y="-145.45" font-family="Segoe UI,FreeSans,Helvetica,Arial,sans-serif" font-size="14.00">110:40</text>
</g>
<!-- y107x007&#45;&#45;y109x039 -->
<g id="edge7" class="edge">
<title>y107x007&#45;&#45;y109x039</title>
<path fill="none" stroke="red" stroke-width="5" d="M111.43,-140.81C116.82,-141.8 122.56,-142.85 128.08,-143.86"/>
<text text-anchor="middle" x="125.5" y="-131.14" font-family="Segoe UI,FreeSans,Helvetica,Arial,sans-serif" font-size="14.00">242</text>
</g>
<!-- y131x039 -->
<g id="node32" class="node">
<title>y131x039</title>
<polygon fill="lightgray" stroke="black" points="172.71,-90.01 115.71,-90.01 115.71,-67.01 172.71,-67.01 172.71,-90.01"/>
<text text-anchor="middle" x="144.21" y="-74.81" font-family="Segoe UI,FreeSans,Helvetica,Arial,sans-serif" font-size="14.00">132:40</text>
</g>
<!-- y107x007&#45;&#45;y131x039 -->
<g id="edge6" class="edge">
<title>y107x007&#45;&#45;y131x039</title>
<path fill="none" stroke="red" stroke-width="5" d="M98.06,-124.54C108.1,-114.53 122.49,-100.18 132.52,-90.17"/>
<text text-anchor="middle" x="103.79" y="-111.16" font-family="Segoe UI,FreeSans,Helvetica,Arial,sans-serif" font-size="14.00">408</text>
</g>
<!-- y109x039&#45;&#45;y089x037 -->
<g id="edge37" class="edge">
<title>y109x039&#45;&#45;y089x037</title>
<path fill="none" stroke="darkgray" d="M156.38,-160.8C155.63,-176.82 154.28,-205.46 153.53,-221.43"/>
<text text-anchor="middle" x="146.96" y="-194.91" font-family="Segoe UI,FreeSans,Helvetica,Arial,sans-serif" font-size="14.00">66</text>
</g>
<!-- y109x039&#45;&#45;y111x057 -->
<g id="edge36" class="edge">
<title>y109x039&#45;&#45;y111x057</title>
<path fill="none" stroke="red" stroke-width="5" d="M185.77,-147.9C194.3,-147.53 203.62,-147.13 212.13,-146.76"/>
<text text-anchor="middle" x="202.95" y="-136.13" font-family="Segoe UI,FreeSans,Helvetica,Arial,sans-serif" font-size="14.00">68</text>
</g>
<!-- y109x039&#45;&#45;y131x039 -->
<g id="edge35" class="edge">
<title>y109x039&#45;&#45;y131x039</title>
<path fill="none" stroke="darkgray" d="M154.83,-137.48C152.49,-124.47 148.72,-103.54 146.36,-90.43"/>
<text text-anchor="middle" x="142.59" y="-102.76" font-family="Segoe UI,FreeSans,Helvetica,Arial,sans-serif" font-size="14.00">78</text>
</g>
<!-- y111x057&#45;&#45;y083x055 -->
<g id="edge48" class="edge">
<title>y111x057&#45;&#45;y083x055</title>
<path fill="none" stroke="darkgray" d="M240.54,-157.15C240.23,-173.6 239.68,-203.49 239.38,-219.99"/>
<text text-anchor="middle" x="228.46" y="-192.37" font-family="Segoe UI,FreeSans,Helvetica,Arial,sans-serif" font-size="14.00">130</text>
</g>
<!-- y123x059 -->
<g id="node31" class="node">
<title>y123x059</title>
<polygon fill="lightgray" stroke="black" points="261.16,-77.02 204.16,-77.02 204.16,-54.02 261.16,-54.02 261.16,-77.02"/>
<text text-anchor="middle" x="232.66" y="-61.82" font-family="Segoe UI,FreeSans,Helvetica,Arial,sans-serif" font-size="14.00">124:60</text>
</g>
<!-- y111x057&#45;&#45;y123x059 -->
<g id="edge49" class="edge">
<title>y111x057&#45;&#45;y123x059</title>
<path fill="none" stroke="darkgray" d="M239.55,-133.72C238.02,-118.51 235.36,-92.23 233.83,-77.12"/>
<text text-anchor="middle" x="228.69" y="-109.22" font-family="Segoe UI,FreeSans,Helvetica,Arial,sans-serif" font-size="14.00">54</text>
</g>
<!-- y123x059&#45;&#45;y131x039 -->
<g id="edge58" class="edge">
<title>y123x059&#45;&#45;y131x039</title>
<path fill="none" stroke="red" stroke-width="5" d="M203.7,-69.78C193.82,-71.23 182.79,-72.85 172.93,-74.3"/>
<text text-anchor="middle" x="188.31" y="-60.84" font-family="Segoe UI,FreeSans,Helvetica,Arial,sans-serif" font-size="14.00">180</text>
</g>
<!-- y135x085 -->
<g id="node33" class="node">
<title>y135x085</title>
<polygon fill="lightgray" stroke="black" points="349.55,-72.73 292.55,-72.73 292.55,-49.73 349.55,-49.73 349.55,-72.73"/>
<text text-anchor="middle" x="321.05" y="-57.53" font-family="Segoe UI,FreeSans,Helvetica,Arial,sans-serif" font-size="14.00">136:86</text>
</g>
<!-- y135x085&#45;&#45;y101x079 -->
<g id="edge29" class="edge">
<title>y135x085&#45;&#45;y101x079</title>
<path fill="none" stroke="darkgray" d="M321.74,-72.76C322.69,-88.51 324.38,-116.6 325.33,-132.43"/>
<text text-anchor="middle" x="312.03" y="-106.4" font-family="Segoe UI,FreeSans,Helvetica,Arial,sans-serif" font-size="14.00">228</text>
</g>
<!-- y135x085&#45;&#45;y123x059 -->
<g id="edge30" class="edge">
<title>y135x085&#45;&#45;y123x059</title>
<path fill="none" stroke="red" stroke-width="5" d="M292.1,-62.64C282.24,-63.12 271.21,-63.65 261.36,-64.13"/>
<text text-anchor="middle" x="276.73" y="-52.18" font-family="Segoe UI,FreeSans,Helvetica,Arial,sans-serif" font-size="14.00">214</text>
</g>
<!-- y137x107 -->
<g id="node34" class="node">
<title>y137x107</title>
<polygon fill="lightgray" stroke="black" points="440.72,-72.47 375.72,-72.47 375.72,-49.47 440.72,-49.47 440.72,-72.47"/>
<text text-anchor="middle" x="408.22" y="-57.27" font-family="Segoe UI,FreeSans,Helvetica,Arial,sans-serif" font-size="14.00">138:108</text>
</g>
<!-- y135x085&#45;&#45;y137x107 -->
<g id="edge31" class="edge">
<title>y135x085&#45;&#45;y137x107</title>
<path fill="none" stroke="red" stroke-width="5" d="M349.59,-61.15C357.93,-61.12 367.11,-61.09 375.68,-61.07"/>
<text text-anchor="middle" x="366.63" y="-49.91" font-family="Segoe UI,FreeSans,Helvetica,Arial,sans-serif" font-size="14.00">84</text>
</g>
<!-- y137x107&#45;&#45;y109x103 -->
<g id="edge50" class="edge">
<title>y137x107&#45;&#45;y109x103</title>
<path fill="none" stroke="red" stroke-width="5" d="M408.7,-72.63C409.37,-88.65 410.56,-117.3 411.23,-133.26"/>
<text text-anchor="middle" x="398.47" y="-106.75" font-family="Segoe UI,FreeSans,Helvetica,Arial,sans-serif" font-size="14.00">260</text>
</g>
<!-- y137x135 -->
<g id="node35" class="node">
<title>y137x135</title>
<polygon fill="lightgray" stroke="black" points="525.64,-76.56 460.64,-76.56 460.64,-53.56 525.64,-53.56 525.64,-76.56"/>
<text text-anchor="middle" x="493.14" y="-61.36" font-family="Segoe UI,FreeSans,Helvetica,Arial,sans-serif" font-size="14.00">138:136</text>
</g>
<!-- y137x107&#45;&#45;y137x135 -->
<g id="edge51" class="edge">
<title>y137x107&#45;&#45;y137x135</title>
<path fill="none" stroke="darkgray" d="M440.81,-62.54C447.26,-62.85 454.04,-63.18 460.49,-63.49"/>
<text text-anchor="middle" x="450.65" y="-51.82" font-family="Segoe UI,FreeSans,Helvetica,Arial,sans-serif" font-size="14.00">92</text>
</g>
<!-- y137x135&#45;&#45;y099x123 -->
<g id="edge55" class="edge">
<title>y137x135&#45;&#45;y099x123</title>
<path fill="none" stroke="red" stroke-width="5" d="M493.49,-76.85C493.97,-93.03 494.83,-121.98 495.3,-138.11"/>
<text text-anchor="middle" x="482.9" y="-111.28" font-family="Segoe UI,FreeSans,Helvetica,Arial,sans-serif" font-size="14.00">326</text>
</g>
<!-- y140x139 -->
<g id="node36" class="node">
<title>y140x139</title>
<polygon fill="lightgray" stroke="black" points="582.92,-23 517.92,-23 517.92,0 582.92,0 582.92,-23"/>
<text text-anchor="middle" x="550.42" y="-7.8" font-family="Segoe UI,FreeSans,Helvetica,Arial,sans-serif" font-size="14.00">141:140</text>
</g>
<!-- y140x139&#45;&#45;y137x135 -->
<g id="edge34" class="edge">
<title>y140x139&#45;&#45;y137x135</title>
<path fill="none" stroke="red" stroke-width="5" d="M537.99,-23.12C528.38,-32.11 515.14,-44.49 505.54,-53.46"/>
<text text-anchor="middle" x="513.77" y="-42.09" font-family="Segoe UI,FreeSans,Helvetica,Arial,sans-serif" font-size="14.00">15</text>
</g>
</g>
</svg>
